<svg width="15" height="15" viewBox="0 0 15 15" fill="none" xmlns="http://www.w3.org/2000/svg">
<g clip-path="url(#clip0_81_764)">
<path d="M6.24991 5.625H4.37491V11.25H6.24991V5.625Z" fill="white"/>
<path d="M10.6251 7.5H8.75009V11.25H10.6251V7.5Z" fill="white"/>
<path d="M15 4.99994H13.125V11.2499H15V4.99994Z" fill="white"/>
<path d="M10.08 5.0206C9.70495 5.02054 9.34525 4.87149 9.08005 4.60623L6.48255 2.01123L5.18755 3.31248L3.8588 1.98373L5.48067 0.36185C5.75051 0.103789 6.10949 -0.0402374 6.48286 -0.0402374C6.85623 -0.0402374 7.21521 0.103789 7.48505 0.36185L10.08 2.95623L12.7744 0.26185L14.1007 1.5881L11.0819 4.60623C10.9505 4.7379 10.7943 4.8423 10.6223 4.91341C10.4504 4.98453 10.2661 5.02095 10.08 5.0206Z" fill="white"/>
<path d="M15 15H2.1875C1.60734 15 1.05094 14.7695 0.640704 14.3593C0.230468 13.9491 0 13.3927 0 12.8125L0 0H1.875V12.8125C1.875 12.8954 1.90792 12.9749 1.96653 13.0335C2.02513 13.0921 2.10462 13.125 2.1875 13.125H15V15Z" fill="white"/>
</g>
<defs>
<clipPath id="clip0_81_764">
<rect width="15" height="15" fill="white"/>
</clipPath>
</defs>
</svg>
