<svg width="25" height="25" viewBox="0 0 25 25" fill="none" xmlns="http://www.w3.org/2000/svg">
<g clip-path="url(#clip0_52_165)">
<path d="M3.125 3.125H8.33333V0H3.125C2.2962 0 1.50134 0.32924 0.915291 0.915291C0.32924 1.50134 0 2.2962 0 3.125L0 21.875C0 22.7038 0.32924 23.4987 0.915291 24.0847C1.50134 24.6708 2.2962 25 3.125 25H8.33333V21.875H3.125V3.125Z" fill="white"/>
<path d="M23.9043 9.92198L19.1272 5.1449L16.9179 7.35531L20.4731 10.9095L5.2085 10.9376V14.0626L20.521 14.0345L16.9106 17.6449L19.12 19.8553L23.8981 15.0782C24.5812 14.3945 24.9654 13.4679 24.9666 12.5014C24.9678 11.5349 24.5858 10.6074 23.9043 9.92198Z" fill="white"/>
</g>
<defs>
<clipPath id="clip0_52_165">
<rect width="25" height="25" fill="white"/>
</clipPath>
</defs>
</svg>
