<svg width="20" height="20" viewBox="0 0 20 20" fill="none" xmlns="http://www.w3.org/2000/svg">
<g clip-path="url(#clip0_81_757)">
<path d="M19.1458 6.05662L17.4283 4.33912L19.2174 2.55079L17.4491 0.782453L15.6608 2.57162L13.9433 0.85412C13.3958 0.308093 12.654 0.00146484 11.8808 0.00146484C11.1075 0.00146484 10.3658 0.308093 9.81828 0.85412L7.16661 3.50579L10.9458 7.28579L7.27328 10.9583L3.50578 7.19079L0.854113 9.84245C0.307323 10.3894 0.000152588 11.1311 0.000152588 11.9045C0.000152588 12.6779 0.307323 13.4197 0.854113 13.9666L2.55995 15.6725L0.782447 17.4491L2.55078 19.2175L4.32745 17.44L6.05661 19.1666C6.32746 19.4375 6.649 19.6524 7.00289 19.799C7.35677 19.9455 7.73607 20.021 8.11911 20.021C8.50216 20.021 8.88146 19.9455 9.23534 19.799C9.58923 19.6524 9.91077 19.4375 10.1816 19.1666L12.8333 16.5175L9.04161 12.7258L12.7149 9.05329L16.4941 12.8333L19.1458 10.1816C19.4167 9.91078 19.6315 9.58924 19.7781 9.23535C19.9247 8.88146 20.0002 8.50217 20.0002 8.11912C20.0002 7.73607 19.9247 7.35678 19.7781 7.00289C19.6315 6.64901 19.4167 6.32746 19.1458 6.05662ZM8.41661 17.4016C8.37791 17.4404 8.33193 17.4712 8.28131 17.4922C8.23069 17.5132 8.17642 17.524 8.12161 17.524C8.06681 17.524 8.01254 17.5132 7.96192 17.4922C7.9113 17.4712 7.86532 17.4404 7.82661 17.4016L2.62161 12.1991C2.5435 12.121 2.49962 12.015 2.49962 11.9045C2.49962 11.7941 2.5435 11.6881 2.62161 11.61L3.50578 10.7258L9.29745 16.5175L8.41661 17.4016ZM17.3783 8.41662L16.4941 9.30079L10.7024 3.50912L11.5833 2.62162C11.622 2.58282 11.668 2.55203 11.7186 2.53103C11.7692 2.51002 11.8235 2.49921 11.8783 2.49921C11.9331 2.49921 11.9874 2.51002 12.038 2.53103C12.0886 2.55203 12.1346 2.58282 12.1733 2.62162L17.3783 7.82495C17.4561 7.90306 17.4999 8.00884 17.4999 8.11912C17.4999 8.2294 17.4561 8.33519 17.3783 8.41329V8.41662Z" fill="white"/>
</g>
<defs>
<clipPath id="clip0_81_757">
<rect width="20" height="20" fill="white"/>
</clipPath>
</defs>
</svg>
