<svg width="15" height="15" viewBox="0 0 15 15" fill="none" xmlns="http://www.w3.org/2000/svg">
<g clip-path="url(#clip0_81_788)">
<path d="M8.605 0.716641C8.4599 0.571506 8.28764 0.456376 8.09804 0.377828C7.90844 0.299279 7.70522 0.25885 7.5 0.25885C7.29478 0.25885 7.09156 0.299279 6.90196 0.377828C6.71236 0.456376 6.5401 0.571506 6.395 0.716641L0 7.11227V13.1248C0 13.622 0.197544 14.099 0.549175 14.4506C0.900805 14.8022 1.37772 14.9998 1.875 14.9998H13.125C13.6223 14.9998 14.0992 14.8022 14.4508 14.4506C14.8025 14.099 15 13.622 15 13.1248V7.11227L8.605 0.716641ZM13.125 13.1248H10V11.136C10 10.5031 9.74859 9.89619 9.30108 9.44868C8.85357 9.00117 8.24662 8.74977 7.61375 8.74977H7.38625C6.75338 8.74977 6.14643 9.00117 5.69892 9.44868C5.25141 9.89619 5 10.5031 5 11.136V13.1248H1.875V7.88852L7.5 2.26352L13.125 7.88852V13.1248Z" fill="white" />
</g>
<defs>
<clipPath id="clip0_81_788">
<rect width="15" height="15" fill="white"/>
</clipPath>
</defs>
</svg>
