<svg width="15" height="15" viewBox="0 0 15 15" fill="none" xmlns="http://www.w3.org/2000/svg">
<g clip-path="url(#clip0_81_763)">
<path d="M15 6.25C14.9986 5.73087 14.8352 5.22512 14.5327 4.80321C14.2302 4.38131 13.8037 4.06426 13.3125 3.89625C13.4783 3.45821 13.6111 3.00842 13.71 2.55062C13.7717 2.24111 13.7639 1.92177 13.6873 1.61562C13.6106 1.30947 13.467 1.02413 13.2668 0.780159C13.0666 0.536193 12.8148 0.339676 12.5295 0.20477C12.2442 0.0698635 11.9325 -7.30181e-05 11.6169 5.72072e-08H3.38313C3.06774 0.000296527 2.75634 0.0705045 2.47134 0.205571C2.18634 0.340638 1.93482 0.537205 1.73489 0.781125C1.53496 1.02505 1.39159 1.31025 1.31509 1.61622C1.2386 1.92219 1.23088 2.24132 1.2925 2.55062C1.39056 3.00835 1.5226 3.45814 1.6875 3.89625C1.19631 4.06426 0.769756 4.38131 0.467275 4.80321C0.164794 5.22512 0.0014496 5.73087 0 6.25C0 8.21875 1.48688 10.5 5.625 10.6144V12.2731C5.63923 12.3868 5.62764 12.5022 5.59109 12.6107C5.55454 12.7192 5.49397 12.8181 5.41389 12.9C5.33382 12.9819 5.2363 13.0446 5.1286 13.0836C5.0209 13.1225 4.9058 13.1367 4.79187 13.125H3.75V15H11.25V13.125H10.2081C10.0946 13.1348 9.98035 13.1193 9.87352 13.0797C9.7667 13.0401 9.66999 12.9773 9.59033 12.8959C9.51067 12.8144 9.45004 12.7163 9.41281 12.6087C9.37558 12.501 9.36267 12.3864 9.375 12.2731V10.6144C13.5131 10.5 15 8.21875 15 6.25ZM13.125 6.25C13.125 7.3125 12.2937 8.44375 10.0456 8.69625C10.0737 8.67062 10.0956 8.6375 10.125 8.61375C11.1028 7.77792 11.9143 6.76523 12.5169 5.62875C12.679 5.63313 12.8332 5.70039 12.9466 5.81632C13.0601 5.93226 13.1241 6.08777 13.125 6.25ZM3.1825 1.97187C3.20664 1.94184 3.23718 1.91756 3.27188 1.9008C3.30659 1.88404 3.34459 1.87523 3.38313 1.875H11.6169C11.6554 1.87523 11.6934 1.88404 11.7281 1.9008C11.7628 1.91756 11.7934 1.94184 11.8175 1.97187C11.8412 1.99983 11.8583 2.03281 11.8674 2.06833C11.8765 2.10384 11.8774 2.14096 11.87 2.17688C11.4168 4.09212 10.3981 5.82681 8.94625 7.15563C8.48435 7.5401 8.11463 8.02332 7.86432 8.56968C7.61402 9.11605 7.48952 9.71162 7.5 10.3125C7.51055 9.71176 7.38615 9.11631 7.13595 8.57006C6.88575 8.0238 6.51614 7.54066 6.05438 7.15625C4.6022 5.82735 3.58328 4.09242 3.13 2.17688C3.12264 2.14096 3.12355 2.10384 3.13264 2.06833C3.14174 2.03281 3.15879 1.99983 3.1825 1.97187ZM1.875 6.25C1.87575 6.08766 1.93964 5.93199 2.05314 5.81592C2.16664 5.69986 2.32085 5.63251 2.48312 5.62813C3.08538 6.7652 3.89688 7.77835 4.875 8.61438C4.90438 8.63813 4.92562 8.67125 4.95375 8.69625C2.70625 8.44375 1.875 7.3125 1.875 6.25Z" fill="white"/>
</g>
<defs>
<clipPath id="clip0_81_763">
<rect width="15" height="15" fill="white"/>
</clipPath>
</defs>
</svg>
