<svg width="15" height="15" viewBox="0 0 15 15" fill="none" xmlns="http://www.w3.org/2000/svg">
<g clip-path="url(#clip0_81_765)">
<path d="M7.49986 4.77359C6.96053 4.77359 6.43332 4.93352 5.98489 5.23315C5.53645 5.53278 5.18694 5.95866 4.98055 6.45693C4.77416 6.95521 4.72016 7.50349 4.82538 8.03245C4.93059 8.56141 5.1903 9.0473 5.57166 9.42866C5.95302 9.81002 6.43891 10.0697 6.96787 10.1749C7.49683 10.2802 8.04511 10.2262 8.54339 10.0198C9.04166 9.81338 9.46754 9.46387 9.76717 9.01544C10.0668 8.567 10.2267 8.03979 10.2267 7.50046C10.2259 6.77751 9.93834 6.0844 9.42713 5.57319C8.91592 5.06198 8.22281 4.77442 7.49986 4.77359ZM7.49986 8.35234C7.33137 8.35234 7.16667 8.30238 7.02658 8.20877C6.88649 8.11517 6.7773 7.98212 6.71283 7.82646C6.64835 7.6708 6.63148 7.49952 6.66435 7.33427C6.69722 7.16902 6.77835 7.01724 6.89749 6.8981C7.01663 6.77896 7.16842 6.69783 7.33366 6.66496C7.49891 6.63209 7.67019 6.64896 7.82585 6.71344C7.98151 6.77791 8.11456 6.8871 8.20816 7.02719C8.30177 7.16728 8.35173 7.33198 8.35173 7.50046C8.35156 7.72635 8.26176 7.94293 8.10204 8.10265C7.94232 8.26237 7.72574 8.35217 7.49986 8.35234Z" fill="white"/>
<path d="M13.7499 7.5C13.7479 6.72176 13.5995 5.95083 13.3124 5.2275L14.4655 4.5625L13.528 2.9375L12.3786 3.60375C11.3978 2.37657 9.99054 1.56405 8.43737 1.32812V0H6.56237V1.32812C5.01085 1.56412 3.60509 2.37567 2.62487 3.60125L1.47362 2.9375L0.536116 4.5625L1.68737 5.22438C1.10777 6.68502 1.10777 8.31185 1.68737 9.7725L0.534241 10.4375L1.47174 12.0625L2.62112 11.3994C3.60248 12.6254 5.00966 13.4368 6.56237 13.6719V15H8.43737V13.6719C9.98888 13.4359 11.3946 12.6243 12.3749 11.3988L13.5249 12.0631L14.4624 10.4381L13.3124 9.77563C13.5995 9.0512 13.7479 8.27926 13.7499 7.5ZM7.49987 11.875C6.63457 11.875 5.78871 11.6184 5.06925 11.1377C4.34978 10.6569 3.78903 9.97367 3.45789 9.17424C3.12676 8.37481 3.04012 7.49515 3.20893 6.64648C3.37774 5.79781 3.79442 5.01826 4.40627 4.40641C5.01813 3.79455 5.79768 3.37787 6.64635 3.20906C7.49501 3.04025 8.37468 3.12689 9.17411 3.45803C9.97353 3.78916 10.6568 4.34992 11.1375 5.06938C11.6183 5.78885 11.8749 6.63471 11.8749 7.5C11.8734 8.65987 11.412 9.7718 10.5918 10.5919C9.77167 11.4121 8.65973 11.8735 7.49987 11.875Z" fill="white"/>
</g>
<defs>
<clipPath id="clip0_81_765">
<rect width="15" height="15" fill="white"/>
</clipPath>
</defs>
</svg>
