<svg width="24" height="24" viewBox="0 0 24 24" fill="none" xmlns="http://www.w3.org/2000/svg">
<g clip-path="url(#clip0_68_786)">
<path d="M3 3H8V0H3C2.20435 0 1.44129 0.31607 0.87868 0.87868C0.31607 1.44129 0 2.20435 0 3L0 21C0 21.7956 0.31607 22.5587 0.87868 23.1213C1.44129 23.6839 2.20435 24 3 24H8V21H3V3Z" fill="white"/>
<path d="M24 13.5001V10.5001L9.30905 10.5261L12.774 7.06109L10.65 4.93909L6.06505 9.52509C5.74 9.8501 5.48216 10.2359 5.30625 10.6606C5.13034 11.0853 5.03979 11.5404 5.03979 12.0001C5.03979 12.4597 5.13034 12.9149 5.30625 13.3396C5.48216 13.7642 5.74 14.1501 6.06505 14.4751L10.65 19.0611L12.771 16.9391L9.35905 13.5261L24 13.5001Z" fill="white"/>
</g>
<defs>
<clipPath id="clip0_68_786">
<rect width="24" height="24" fill="white"/>
</clipPath>
</defs>
</svg>
