<?xml version="1.0" encoding="UTF-8"?>
<svg id="Capa_2" data-name="Capa 2" xmlns="http://www.w3.org/2000/svg" viewBox="0 0 30 38.93">
  <defs>
    <style>
      .cls-1 {
        fill: #fff;
      }
    </style>
  </defs>
  <g id="Capa_1-2" data-name="Capa 1">
    <g>
      <path class="cls-1" d="M30,38.93h-5v-8.33c0-.88-.35-1.73-.98-2.36-.63-.63-1.47-.98-2.36-.98H8.33c-.88,0-1.73,.35-2.36,.98-.63,.63-.98,1.47-.98,2.36v8.33H0v-8.33c0-2.21,.88-4.33,2.44-5.89,1.56-1.56,3.68-2.44,5.89-2.44h13.33c2.21,0,4.33,.88,5.89,2.44,1.56,1.56,2.44,3.68,2.44,5.89v8.33Z"/>
      <path class="cls-1" d="M15,20c-1.98,0-3.91-.59-5.56-1.69-1.64-1.1-2.93-2.66-3.68-4.49-.76-1.83-.95-3.84-.57-5.78,.39-1.94,1.34-3.72,2.74-5.12C9.33,1.53,11.11,.58,13.05,.19c1.94-.39,3.95-.19,5.78,.57,1.83,.76,3.39,2.04,4.49,3.68,1.1,1.64,1.69,3.58,1.69,5.56,0,2.65-1.06,5.19-2.93,7.07-1.87,1.87-4.42,2.93-7.07,2.93h0Zm0-15c-.99,0-1.96,.29-2.78,.84-.82,.55-1.46,1.33-1.84,2.24-.38,.91-.48,1.92-.28,2.89,.19,.97,.67,1.86,1.37,2.56,.7,.7,1.59,1.18,2.56,1.37,.97,.19,1.98,.09,2.89-.28,.91-.38,1.69-1.02,2.24-1.84,.55-.82,.84-1.79,.84-2.78,0-1.33-.53-2.6-1.46-3.54-.94-.94-2.21-1.46-3.54-1.46Z"/>
    </g>
  </g>
</svg>