<svg width="30" height="17" viewBox="0 0 30 17" fill="none" xmlns="http://www.w3.org/2000/svg">
<path d="M30 17.001H25V8.66768C25 7.78363 24.6488 6.93578 24.0237 6.31066C23.3986 5.68554 22.5507 5.33435 21.6667 5.33435H8.33333C7.44928 5.33435 6.60143 5.68554 5.97631 6.31066C5.35119 6.93578 5 7.78363 5 8.66768V17.001H0V8.66768C0.00264643 6.45836 0.88147 4.34028 2.4437 2.77805C4.00593 1.21582 6.12401 0.336997 8.33333 0.334351H21.6667C23.876 0.336997 25.9941 1.21582 27.5563 2.77805C29.1185 4.34028 29.9974 6.45836 30 8.66768V17.001Z" fill="white"/>
</svg>
