<svg width="20" height="20" viewBox="0 0 20 20" fill="none" xmlns="http://www.w3.org/2000/svg">
<path d="M10 19.9999C8.02219 19.9999 6.08879 19.4134 4.4443 18.3146C2.79981 17.2158 1.51809 15.654 0.761209 13.8267C0.00433286 11.9995 -0.193701 9.98879 0.192152 8.04898C0.578004 6.10917 1.53041 4.32734 2.92894 2.92881C4.32746 1.53029 6.10929 0.577882 8.0491 0.19203C9.98891 -0.193823 11.9996 0.00421079 13.8268 0.761087C15.6541 1.51796 17.2159 2.79969 18.3147 4.44418C19.4135 6.08867 20 8.02207 20 9.99988C19.9974 12.6512 18.9429 15.1932 17.0681 17.068C15.1934 18.9428 12.6514 19.9972 10 19.9999V19.9999ZM10 4.99988C9.0111 4.99988 8.0444 5.29313 7.22215 5.84253C6.39991 6.39194 5.75904 7.17283 5.38061 8.08647C5.00217 9.0001 4.90315 10.0054 5.09608 10.9753C5.289 11.9452 5.76521 12.8362 6.46447 13.5354C7.16373 14.2347 8.05465 14.7109 9.02455 14.9038C9.99446 15.0967 10.9998 14.9977 11.9134 14.6193C12.8271 14.2408 13.6079 13.6 14.1574 12.7777C14.7068 11.9555 15 10.9888 15 9.99988C15 8.6738 14.4732 7.40203 13.5355 6.46435C12.5979 5.52667 11.3261 4.99988 10 4.99988Z" fill="white"/>
</svg>
