<svg width="20" height="20" viewBox="0 0 20 20" fill="none" xmlns="http://www.w3.org/2000/svg">
<g clip-path="url(#clip0_153_1109)">
<path d="M8.33311 7.5H5.83311V15H8.33311V7.5Z" fill="white"/>
<path d="M14.1667 10H11.6667V15H14.1667V10Z" fill="white"/>
<path d="M19.9999 6.66656H17.4999V14.9999H19.9999V6.66656Z" fill="white"/>
<path d="M13.44 6.69413C12.9399 6.69405 12.4602 6.49531 12.1066 6.14163L8.64331 2.68163L6.91664 4.41663L5.14497 2.64497L7.30747 0.482467C7.66725 0.138386 8.1459 -0.0536499 8.64372 -0.0536499C9.14155 -0.0536499 9.62019 0.138386 9.97997 0.482467L13.44 3.94163L17.0325 0.349134L18.8008 2.11747L14.7758 6.14163C14.6005 6.3172 14.3923 6.4564 14.163 6.55122C13.9338 6.64603 13.6881 6.6946 13.44 6.69413Z" fill="white"/>
<path d="M19.9999 20H2.91657C2.14303 20 1.40116 19.6927 0.85418 19.1457C0.307199 18.5987 -9.15527e-05 17.8569 -9.15527e-05 17.0833L-9.15527e-05 0H2.49991V17.0833C2.49991 17.1938 2.54381 17.2998 2.62195 17.378C2.70009 17.4561 2.80607 17.5 2.91657 17.5H19.9999V20Z" fill="white"/>
</g>
<defs>
<clipPath id="clip0_153_1109">
<rect width="20" height="20" fill="white"/>
</clipPath>
</defs>
</svg>
