<svg width="20" height="20" viewBox="0 0 20 20" fill="none" xmlns="http://www.w3.org/2000/svg">
<g clip-path="url(#clip0_81_763)">
<path d="M19.9999 8.33333C19.998 7.64116 19.7802 6.96683 19.3769 6.40429C18.9736 5.84175 18.4048 5.41902 17.7499 5.195C17.9709 4.61094 18.1481 4.01123 18.2799 3.40083C18.3621 2.98814 18.3518 2.56236 18.2496 2.15416C18.1474 1.74595 17.9559 1.3655 17.689 1.04021C17.4221 0.714924 17.0863 0.452902 16.7059 0.273027C16.3255 0.0931513 15.9099 -9.73575e-05 15.4891 7.62763e-08H4.51074C4.09023 0.000395369 3.67503 0.094006 3.29502 0.274095C2.91502 0.454184 2.57967 0.716273 2.31309 1.0415C2.04652 1.36673 1.85536 1.747 1.75337 2.15496C1.65137 2.56292 1.64108 2.98842 1.72324 3.40083C1.85399 4.01114 2.03004 4.61085 2.24991 5.195C1.59499 5.41902 1.02625 5.84175 0.622942 6.40429C0.219634 6.96683 0.00184125 7.64116 -9.15527e-05 8.33333C-9.15527e-05 10.9583 1.98241 14 7.49991 14.1525V16.3642C7.51889 16.5157 7.50343 16.6695 7.4547 16.8143C7.40596 16.959 7.3252 17.0908 7.21843 17.2C7.11166 17.3092 6.98164 17.3928 6.83804 17.4448C6.69444 17.4967 6.54098 17.5156 6.38907 17.5H4.99991V20H14.9999V17.5H13.6107C13.4594 17.5131 13.307 17.4925 13.1646 17.4396C13.0222 17.3868 12.8932 17.3031 12.787 17.1945C12.6808 17.0859 12.6 16.9551 12.5503 16.8115C12.5007 16.668 12.4835 16.5152 12.4999 16.3642V14.1525C18.0174 14 19.9999 10.9583 19.9999 8.33333ZM17.4999 8.33333C17.4999 9.75 16.3916 11.2583 13.3941 11.595C13.4316 11.5608 13.4607 11.5167 13.4999 11.485C14.8037 10.3706 15.8856 9.02031 16.6891 7.505C16.9053 7.51084 17.1108 7.60052 17.2621 7.7551C17.4134 7.90967 17.4987 8.11703 17.4999 8.33333ZM4.24324 2.62917C4.27543 2.58912 4.31614 2.55674 4.36242 2.5344C4.40869 2.51206 4.45936 2.5003 4.51074 2.5H15.4891C15.5405 2.5003 15.5911 2.51206 15.6374 2.5344C15.6837 2.55674 15.7244 2.58912 15.7566 2.62917C15.7882 2.66644 15.8109 2.71042 15.8231 2.75777C15.8352 2.80512 15.8364 2.85461 15.8266 2.9025C15.2223 5.45616 13.864 7.76908 11.9282 9.54083C11.3124 10.0535 10.8194 10.6978 10.4857 11.4262C10.1519 12.1547 9.98593 12.9488 9.99991 13.75C10.014 12.949 9.8481 12.1551 9.51451 11.4267C9.18091 10.6984 8.6881 10.0542 8.07241 9.54167C6.13618 7.7698 4.77762 5.45656 4.17324 2.9025C4.16343 2.85461 4.16464 2.80512 4.17676 2.75777C4.18889 2.71042 4.21162 2.66644 4.24324 2.62917ZM2.49991 8.33333C2.50091 8.11689 2.58609 7.90932 2.73743 7.75456C2.88876 7.59981 3.09437 7.51001 3.31074 7.50417C4.11375 9.02026 5.19575 10.3711 6.49991 11.4858C6.53907 11.5175 6.56741 11.5617 6.60491 11.595C3.60824 11.2583 2.49991 9.75 2.49991 8.33333Z" fill="white"/>
</g>
<defs>
<clipPath id="clip0_81_763">
<rect width="20" height="20" fill="white"/>
</clipPath>
</defs>
</svg>
