<svg width="20" height="20" viewBox="0 0 20 20" fill="none" xmlns="http://www.w3.org/2000/svg">
<g clip-path="url(#clip0_81_788)">
<path d="M11.4732 0.955603C11.2798 0.76209 11.0501 0.608583 10.7973 0.503852C10.5445 0.39912 10.2735 0.345215 9.9999 0.345215C9.72627 0.345215 9.45531 0.39912 9.20252 0.503852C8.94972 0.608583 8.72003 0.76209 8.52657 0.955603L-9.91821e-05 9.4831V17.4998C-9.91821e-05 18.1628 0.263293 18.7987 0.732134 19.2675C1.20097 19.7364 1.83686 19.9998 2.4999 19.9998H17.4999C18.1629 19.9998 18.7988 19.7364 19.2677 19.2675C19.7365 18.7987 19.9999 18.1628 19.9999 17.4998V9.4831L11.4732 0.955603ZM17.4999 17.4998H13.3332V14.8481C13.3332 14.0043 12.998 13.195 12.4013 12.5983C11.8047 12.0016 10.9954 11.6664 10.1516 11.6664H9.84823C9.0044 11.6664 8.19513 12.0016 7.59846 12.5983C7.00178 13.195 6.66657 14.0043 6.66657 14.8481V17.4998H2.4999V10.5181L9.9999 3.0181L17.4999 10.5181V17.4998Z" fill="white"/>
</g>
<defs>
<clipPath id="clip0_81_788">
<rect width="20" height="20" fill="white"/>
</clipPath>
</defs>
</svg>
