<svg width="50" height="50" viewBox="0 0 50 50" fill="none" xmlns="http://www.w3.org/2000/svg">
<g clip-path="url(#clip0_125_1645)">
<path d="M47.8644 15.1409L43.5706 10.8472L48.0436 6.37633L43.6227 1.95549L39.1519 6.42841L34.8581 2.13466C33.4893 0.769593 31.635 0.00302124 29.7019 0.00302124C27.7687 0.00302124 25.9145 0.769593 24.5456 2.13466L17.9165 8.76383L27.3644 18.2138L18.1831 27.3951L8.76438 17.9763L2.13522 24.6055C0.76824 25.9729 0.000314713 27.8272 0.000314713 29.7607C0.000314713 31.6942 0.76824 33.5485 2.13522 34.9159L6.3998 39.1805L1.95605 43.6222L6.37688 48.043L10.8185 43.5992L15.1415 47.9159C15.8186 48.5931 16.6224 49.1303 17.5071 49.4967C18.3919 49.8632 19.3401 50.0519 20.2977 50.0519C21.2553 50.0519 22.2036 49.8632 23.0883 49.4967C23.973 49.1303 24.7769 48.5931 25.454 47.9159L32.0831 41.293L22.604 31.8138L31.7873 22.6326L41.2352 32.0826L47.8644 25.4534C48.5416 24.7763 49.0787 23.9725 49.4452 23.0877C49.8117 22.203 50.0003 21.2548 50.0003 20.2972C50.0003 19.3395 49.8117 18.3913 49.4452 17.5066C49.0787 16.6219 48.5416 15.818 47.8644 15.1409V15.1409ZM21.0415 43.5034C20.9447 43.6004 20.8298 43.6774 20.7032 43.7299C20.5767 43.7824 20.441 43.8094 20.304 43.8094C20.167 43.8094 20.0313 43.7824 19.9047 43.7299C19.7782 43.6774 19.6632 43.6004 19.5665 43.5034L6.55397 30.4972C6.35868 30.3018 6.24898 30.0369 6.24898 29.7607C6.24898 29.4845 6.35868 29.2196 6.55397 29.0242L8.76438 26.8138L23.2436 41.293L21.0415 43.5034ZM43.4456 21.0409L41.2352 23.2513L26.7561 8.77216L28.9581 6.55341C29.0549 6.4564 29.1698 6.37944 29.2964 6.32693C29.423 6.27441 29.5586 6.24738 29.6956 6.24738C29.8327 6.24738 29.9683 6.27441 30.0949 6.32693C30.2214 6.37944 30.3364 6.4564 30.4331 6.55341L43.4456 19.5617C43.6403 19.757 43.7496 20.0215 43.7496 20.2972C43.7496 20.5729 43.6403 20.8373 43.4456 21.0326V21.0409Z" fill="white"/>
</g>
<defs>
<clipPath id="clip0_125_1645">
<rect width="50" height="50" fill="white"/>
</clipPath>
</defs>
</svg>
